<svg width="29" height="29" viewBox="0 0 29 29" fill="none" xmlns="http://www.w3.org/2000/svg">
<path fill-rule="evenodd" clip-rule="evenodd" d="M14.0517 2.7377C7.58782 2.7377 2.3418 7.95213 2.3418 14.377C2.3418 20.802 7.58782 26.0164 14.0517 26.0164C20.5155 26.0164 25.7615 20.802 25.7615 14.377C25.7615 7.95213 20.5155 2.7377 14.0517 2.7377ZM8.2787 21.6866C8.78222 20.639 11.8502 19.6148 14.0517 19.6148C16.2531 19.6148 19.3328 20.639 19.8246 21.6866C18.2321 22.9436 16.2297 23.6885 14.0517 23.6885C11.8736 23.6885 9.87124 22.9436 8.2787 21.6866ZM21.4991 19.9988C19.8246 17.9736 15.7613 17.2869 14.0517 17.2869C12.342 17.2869 8.2787 17.9736 6.60419 19.9988C5.40978 18.4392 4.68377 16.4954 4.68377 14.377C4.68377 9.24409 8.88761 5.06557 14.0517 5.06557C19.2157 5.06557 23.4196 9.24409 23.4196 14.377C23.4196 16.4954 22.6935 18.4392 21.4991 19.9988ZM14.0517 7.39344C11.7799 7.39344 9.95321 9.20918 9.95321 11.4672C9.95321 13.7252 11.7799 15.541 14.0517 15.541C16.3234 15.541 18.1501 13.7252 18.1501 11.4672C18.1501 9.20918 16.3234 7.39344 14.0517 7.39344ZM14.0517 13.2131C13.0797 13.2131 12.2952 12.4333 12.2952 11.4672C12.2952 10.5011 13.0797 9.72131 14.0517 9.72131C15.0236 9.72131 15.8081 10.5011 15.8081 11.4672C15.8081 12.4333 15.0236 13.2131 14.0517 13.2131Z" fill="#354147"/>
<mask id="mask0_8313_822" style="mask-type:luminance" maskUnits="userSpaceOnUse" x="2" y="2" width="24" height="25">
<path fill-rule="evenodd" clip-rule="evenodd" d="M14.0517 2.7377C7.58782 2.7377 2.3418 7.95213 2.3418 14.377C2.3418 20.802 7.58782 26.0164 14.0517 26.0164C20.5155 26.0164 25.7615 20.802 25.7615 14.377C25.7615 7.95213 20.5155 2.7377 14.0517 2.7377ZM8.2787 21.6866C8.78222 20.639 11.8502 19.6148 14.0517 19.6148C16.2531 19.6148 19.3328 20.639 19.8246 21.6866C18.2321 22.9436 16.2297 23.6885 14.0517 23.6885C11.8736 23.6885 9.87124 22.9436 8.2787 21.6866ZM21.4991 19.9988C19.8246 17.9736 15.7613 17.2869 14.0517 17.2869C12.342 17.2869 8.2787 17.9736 6.60419 19.9988C5.40978 18.4392 4.68377 16.4954 4.68377 14.377C4.68377 9.24409 8.88761 5.06557 14.0517 5.06557C19.2157 5.06557 23.4196 9.24409 23.4196 14.377C23.4196 16.4954 22.6935 18.4392 21.4991 19.9988ZM14.0517 7.39344C11.7799 7.39344 9.95321 9.20918 9.95321 11.4672C9.95321 13.7252 11.7799 15.541 14.0517 15.541C16.3234 15.541 18.1501 13.7252 18.1501 11.4672C18.1501 9.20918 16.3234 7.39344 14.0517 7.39344ZM14.0517 13.2131C13.0797 13.2131 12.2952 12.4333 12.2952 11.4672C12.2952 10.5011 13.0797 9.72131 14.0517 9.72131C15.0236 9.72131 15.8081 10.5011 15.8081 11.4672C15.8081 12.4333 15.0236 13.2131 14.0517 13.2131Z" fill="white"/>
</mask>
<g mask="url(#mask0_8313_822)">
</g>
</svg>
