<svg width="107" height="37" viewBox="0 0 107 37" fill="none" xmlns="http://www.w3.org/2000/svg">
<g clip-path="url(#clip0_8313_836)">
<path d="M28.733 6.344V6.984C28.0503 7.00533 27.5383 7.09067 27.197 7.24C26.8557 7.368 26.621 7.624 26.493 8.008C26.3863 8.37067 26.333 8.94666 26.333 9.736V25.608C26.333 26.376 26.3863 26.952 26.493 27.336C26.621 27.72 26.8557 27.976 27.197 28.104C27.5383 28.232 28.0503 28.3173 28.733 28.36V29C28.1357 28.9573 27.3783 28.936 26.461 28.936C25.565 28.9147 24.6477 28.904 23.709 28.904C22.685 28.904 21.725 28.9147 20.829 28.936C19.933 28.936 19.2077 28.9573 18.653 29V28.36C19.3783 28.3173 19.9223 28.232 20.285 28.104C20.669 27.976 20.925 27.72 21.053 27.336C21.181 26.952 21.245 26.376 21.245 25.608V8.296H21.469L13.533 29.032H13.021L4.381 8.424V23.752C4.381 24.9253 4.445 25.832 4.573 26.472C4.701 27.0907 4.97833 27.5387 5.405 27.816C5.853 28.072 6.54633 28.2533 7.485 28.36V29C7.07967 28.9573 6.54633 28.936 5.885 28.936C5.22367 28.9147 4.605 28.904 4.029 28.904C3.53833 28.904 3.037 28.9147 2.525 28.936C2.013 28.936 1.58633 28.9573 1.245 29V28.36C1.92767 28.2533 2.43967 28.072 2.781 27.816C3.12233 27.56 3.34633 27.144 3.453 26.568C3.581 25.9707 3.645 25.16 3.645 24.136V9.736C3.645 8.94666 3.581 8.37067 3.453 8.008C3.34633 7.624 3.11167 7.368 2.749 7.24C2.40767 7.09067 1.90633 7.00533 1.245 6.984V6.344C1.58633 6.36533 2.013 6.38667 2.525 6.408C3.037 6.42933 3.53833 6.44 4.029 6.44C4.94633 6.44 5.84233 6.42933 6.717 6.408C7.613 6.38667 8.40233 6.36533 9.085 6.344L15.805 22.568L15.005 23.304L21.437 6.44C21.7997 6.44 22.173 6.44 22.557 6.44C22.941 6.44 23.325 6.44 23.709 6.44C24.6477 6.44 25.565 6.42933 26.461 6.408C27.3783 6.38667 28.1357 6.36533 28.733 6.344Z" fill="#0B1D26"/>
<path d="M54.301 6.344V6.984C53.6183 7.06933 53.1063 7.25067 52.765 7.528C52.4237 7.784 52.189 8.2 52.061 8.776C51.9543 9.352 51.901 10.1627 51.901 11.208V29.064C51.645 29.0427 51.3783 29.032 51.101 29.032C50.845 29.032 50.5677 29.0427 50.269 29.064L36.381 11.464V23.752C36.381 24.9253 36.445 25.832 36.573 26.472C36.701 27.0907 36.9783 27.5387 37.405 27.816C37.853 28.072 38.5463 28.2533 39.485 28.36V29C39.0797 28.9573 38.5463 28.936 37.885 28.936C37.2237 28.9147 36.605 28.904 36.029 28.904C35.5383 28.904 35.037 28.9147 34.525 28.936C34.013 28.936 33.5863 28.9573 33.245 29V28.36C33.9277 28.2533 34.4397 28.072 34.781 27.816C35.1223 27.56 35.3463 27.144 35.453 26.568C35.581 25.9707 35.645 25.16 35.645 24.136V9.736C35.645 8.94666 35.581 8.37067 35.453 8.008C35.3463 7.624 35.1117 7.368 34.749 7.24C34.4077 7.09067 33.9063 7.00533 33.245 6.984V6.344C33.5863 6.36533 34.013 6.38667 34.525 6.408C35.037 6.42933 35.5383 6.44 36.029 6.44C36.541 6.44 37.0317 6.42933 37.501 6.408C37.9703 6.38667 38.397 6.36533 38.781 6.344L51.165 21.608V11.592C51.165 10.4187 51.101 9.52267 50.973 8.904C50.845 8.264 50.557 7.80533 50.109 7.528C49.6823 7.25067 48.9997 7.06933 48.061 6.984V6.344C48.4663 6.36533 48.9997 6.38667 49.661 6.408C50.3223 6.42933 50.941 6.44 51.517 6.44C52.029 6.44 52.5303 6.42933 53.021 6.408C53.533 6.38667 53.9597 6.36533 54.301 6.344Z" fill="#0B1D26"/>
<path d="M78.669 6.344C78.5837 7.432 78.5197 8.47733 78.477 9.48C78.4557 10.4827 78.445 11.2507 78.445 11.784C78.445 12.2533 78.4557 12.7013 78.477 13.128C78.4983 13.5547 78.5197 13.9173 78.541 14.216H77.805C77.4637 12.424 77.0263 11.0053 76.493 9.96C75.981 8.91467 75.3623 8.17867 74.637 7.752C73.9117 7.304 73.0583 7.08 72.077 7.08H71.341V25.352C71.341 26.2053 71.4263 26.8453 71.597 27.272C71.789 27.6987 72.1303 27.9867 72.621 28.136C73.1117 28.264 73.8263 28.3387 74.765 28.36V29C74.1037 28.9787 73.2183 28.9573 72.109 28.936C71.021 28.9147 69.8797 28.904 68.685 28.904C67.5117 28.904 66.4023 28.9147 65.357 28.936C64.3117 28.9573 63.469 28.9787 62.829 29V28.36C63.789 28.3387 64.5143 28.264 65.005 28.136C65.4957 27.9867 65.8263 27.6987 65.997 27.272C66.1677 26.8453 66.253 26.2053 66.253 25.352V7.08H65.549C64.5677 7.08 63.7143 7.304 62.989 7.752C62.2637 8.17867 61.645 8.91467 61.133 9.96C60.621 10.984 60.173 12.4027 59.789 14.216H59.053C59.0957 13.9173 59.117 13.5547 59.117 13.128C59.1383 12.7013 59.149 12.2533 59.149 11.784C59.149 11.2507 59.1277 10.4827 59.085 9.48C59.0637 8.47733 59.0103 7.432 58.925 6.344C59.9063 6.36533 60.973 6.38667 62.125 6.408C63.2983 6.42933 64.4717 6.44 65.645 6.44C66.8183 6.44 67.8743 6.44 68.813 6.44C69.773 6.44 70.829 6.44 71.981 6.44C73.1543 6.44 74.3277 6.42933 75.501 6.408C76.6743 6.38667 77.7303 6.36533 78.669 6.344Z" fill="#0B1D26"/>
<path d="M104.301 6.344V6.984C103.618 7.06933 103.106 7.25067 102.765 7.528C102.424 7.784 102.189 8.2 102.061 8.776C101.954 9.352 101.901 10.1627 101.901 11.208V29.064C101.645 29.0427 101.378 29.032 101.101 29.032C100.845 29.032 100.568 29.0427 100.269 29.064L86.381 11.464V23.752C86.381 24.9253 86.445 25.832 86.573 26.472C86.701 27.0907 86.9783 27.5387 87.405 27.816C87.853 28.072 88.5463 28.2533 89.485 28.36V29C89.0797 28.9573 88.5463 28.936 87.885 28.936C87.2237 28.9147 86.605 28.904 86.029 28.904C85.5383 28.904 85.037 28.9147 84.525 28.936C84.013 28.936 83.5863 28.9573 83.245 29V28.36C83.9277 28.2533 84.4397 28.072 84.781 27.816C85.1223 27.56 85.3463 27.144 85.453 26.568C85.581 25.9707 85.645 25.16 85.645 24.136V9.736C85.645 8.94666 85.581 8.37067 85.453 8.008C85.3463 7.624 85.1117 7.368 84.749 7.24C84.4077 7.09067 83.9063 7.00533 83.245 6.984V6.344C83.5863 6.36533 84.013 6.38667 84.525 6.408C85.037 6.42933 85.5383 6.44 86.029 6.44C86.541 6.44 87.0317 6.42933 87.501 6.408C87.9703 6.38667 88.397 6.36533 88.781 6.344L101.165 21.608V11.592C101.165 10.4187 101.101 9.52267 100.973 8.904C100.845 8.264 100.557 7.80533 100.109 7.528C99.6823 7.25067 98.9997 7.06933 98.061 6.984V6.344C98.4663 6.36533 98.9997 6.38667 99.661 6.408C100.322 6.42933 100.941 6.44 101.517 6.44C102.029 6.44 102.53 6.42933 103.021 6.408C103.533 6.38667 103.96 6.36533 104.301 6.344Z" fill="#0B1D26"/>
</g>
<defs>
<clipPath id="clip0_8313_836">
<rect width="106" height="37" fill="white" transform="translate(0.125)"/>
</clipPath>
</defs>
</svg>
