<svg width="106" height="43" viewBox="0 0 106 43" fill="none" xmlns="http://www.w3.org/2000/svg">
<path d="M28.608 12.344V12.984C27.9253 13.0053 27.4133 13.0907 27.072 13.24C26.7307 13.368 26.496 13.624 26.368 14.008C26.2613 14.3707 26.208 14.9467 26.208 15.736V31.608C26.208 32.376 26.2613 32.952 26.368 33.336C26.496 33.72 26.7307 33.976 27.072 34.104C27.4133 34.232 27.9253 34.3173 28.608 34.36V35C28.0107 34.9573 27.2533 34.936 26.336 34.936C25.44 34.9147 24.5227 34.904 23.584 34.904C22.56 34.904 21.6 34.9147 20.704 34.936C19.808 34.936 19.0827 34.9573 18.528 35V34.36C19.2533 34.3173 19.7973 34.232 20.16 34.104C20.544 33.976 20.8 33.72 20.928 33.336C21.056 32.952 21.12 32.376 21.12 31.608V14.296H21.344L13.408 35.032H12.896L4.256 14.424V29.752C4.256 30.9253 4.32 31.832 4.448 32.472C4.576 33.0907 4.85333 33.5387 5.28 33.816C5.728 34.072 6.42133 34.2533 7.36 34.36V35C6.95467 34.9573 6.42133 34.936 5.76 34.936C5.09867 34.9147 4.48 34.904 3.904 34.904C3.41333 34.904 2.912 34.9147 2.4 34.936C1.888 34.936 1.46133 34.9573 1.12 35V34.36C1.80267 34.2533 2.31467 34.072 2.656 33.816C2.99733 33.56 3.22133 33.144 3.328 32.568C3.456 31.9707 3.52 31.16 3.52 30.136V15.736C3.52 14.9467 3.456 14.3707 3.328 14.008C3.22133 13.624 2.98667 13.368 2.624 13.24C2.28267 13.0907 1.78133 13.0053 1.12 12.984V12.344C1.46133 12.3653 1.888 12.3867 2.4 12.408C2.912 12.4293 3.41333 12.44 3.904 12.44C4.82133 12.44 5.71733 12.4293 6.592 12.408C7.488 12.3867 8.27733 12.3653 8.96 12.344L15.68 28.568L14.88 29.304L21.312 12.44C21.6747 12.44 22.048 12.44 22.432 12.44C22.816 12.44 23.2 12.44 23.584 12.44C24.5227 12.44 25.44 12.4293 26.336 12.408C27.2533 12.3867 28.0107 12.3653 28.608 12.344Z" fill="white"/>
<path d="M54.176 12.344V12.984C53.4933 13.0693 52.9813 13.2507 52.64 13.528C52.2987 13.784 52.064 14.2 51.936 14.776C51.8293 15.352 51.776 16.1627 51.776 17.208V35.064C51.52 35.0427 51.2533 35.032 50.976 35.032C50.72 35.032 50.4427 35.0427 50.144 35.064L36.256 17.464V29.752C36.256 30.9253 36.32 31.832 36.448 32.472C36.576 33.0907 36.8533 33.5387 37.28 33.816C37.728 34.072 38.4213 34.2533 39.36 34.36V35C38.9547 34.9573 38.4213 34.936 37.76 34.936C37.0987 34.9147 36.48 34.904 35.904 34.904C35.4133 34.904 34.912 34.9147 34.4 34.936C33.888 34.936 33.4613 34.9573 33.12 35V34.36C33.8027 34.2533 34.3147 34.072 34.656 33.816C34.9973 33.56 35.2213 33.144 35.328 32.568C35.456 31.9707 35.52 31.16 35.52 30.136V15.736C35.52 14.9467 35.456 14.3707 35.328 14.008C35.2213 13.624 34.9867 13.368 34.624 13.24C34.2827 13.0907 33.7813 13.0053 33.12 12.984V12.344C33.4613 12.3653 33.888 12.3867 34.4 12.408C34.912 12.4293 35.4133 12.44 35.904 12.44C36.416 12.44 36.9067 12.4293 37.376 12.408C37.8453 12.3867 38.272 12.3653 38.656 12.344L51.04 27.608V17.592C51.04 16.4187 50.976 15.5227 50.848 14.904C50.72 14.264 50.432 13.8053 49.984 13.528C49.5573 13.2507 48.8747 13.0693 47.936 12.984V12.344C48.3413 12.3653 48.8747 12.3867 49.536 12.408C50.1973 12.4293 50.816 12.44 51.392 12.44C51.904 12.44 52.4053 12.4293 52.896 12.408C53.408 12.3867 53.8347 12.3653 54.176 12.344Z" fill="white"/>
<path d="M78.544 12.344C78.4587 13.432 78.3947 14.4773 78.352 15.48C78.3307 16.4827 78.32 17.2507 78.32 17.784C78.32 18.2533 78.3307 18.7013 78.352 19.128C78.3733 19.5547 78.3947 19.9173 78.416 20.216H77.68C77.3387 18.424 76.9013 17.0053 76.368 15.96C75.856 14.9147 75.2373 14.1787 74.512 13.752C73.7867 13.304 72.9333 13.08 71.952 13.08H71.216V31.352C71.216 32.2053 71.3013 32.8453 71.472 33.272C71.664 33.6987 72.0053 33.9867 72.496 34.136C72.9867 34.264 73.7013 34.3387 74.64 34.36V35C73.9787 34.9787 73.0933 34.9573 71.984 34.936C70.896 34.9147 69.7547 34.904 68.56 34.904C67.3867 34.904 66.2773 34.9147 65.232 34.936C64.1867 34.9573 63.344 34.9787 62.704 35V34.36C63.664 34.3387 64.3893 34.264 64.88 34.136C65.3707 33.9867 65.7013 33.6987 65.872 33.272C66.0427 32.8453 66.128 32.2053 66.128 31.352V13.08H65.424C64.4427 13.08 63.5893 13.304 62.864 13.752C62.1387 14.1787 61.52 14.9147 61.008 15.96C60.496 16.984 60.048 18.4027 59.664 20.216H58.928C58.9707 19.9173 58.992 19.5547 58.992 19.128C59.0133 18.7013 59.024 18.2533 59.024 17.784C59.024 17.2507 59.0027 16.4827 58.96 15.48C58.9387 14.4773 58.8853 13.432 58.8 12.344C59.7813 12.3653 60.848 12.3867 62 12.408C63.1733 12.4293 64.3467 12.44 65.52 12.44C66.6933 12.44 67.7493 12.44 68.688 12.44C69.648 12.44 70.704 12.44 71.856 12.44C73.0293 12.44 74.2027 12.4293 75.376 12.408C76.5493 12.3867 77.6053 12.3653 78.544 12.344Z" fill="white"/>
<path d="M104.176 12.344V12.984C103.493 13.0693 102.981 13.2507 102.64 13.528C102.299 13.784 102.064 14.2 101.936 14.776C101.829 15.352 101.776 16.1627 101.776 17.208V35.064C101.52 35.0427 101.253 35.032 100.976 35.032C100.72 35.032 100.443 35.0427 100.144 35.064L86.256 17.464V29.752C86.256 30.9253 86.32 31.832 86.448 32.472C86.576 33.0907 86.8533 33.5387 87.28 33.816C87.728 34.072 88.4213 34.2533 89.36 34.36V35C88.9547 34.9573 88.4213 34.936 87.76 34.936C87.0987 34.9147 86.48 34.904 85.904 34.904C85.4133 34.904 84.912 34.9147 84.4 34.936C83.888 34.936 83.4613 34.9573 83.12 35V34.36C83.8027 34.2533 84.3147 34.072 84.656 33.816C84.9973 33.56 85.2213 33.144 85.328 32.568C85.456 31.9707 85.52 31.16 85.52 30.136V15.736C85.52 14.9467 85.456 14.3707 85.328 14.008C85.2213 13.624 84.9867 13.368 84.624 13.24C84.2827 13.0907 83.7813 13.0053 83.12 12.984V12.344C83.4613 12.3653 83.888 12.3867 84.4 12.408C84.912 12.4293 85.4133 12.44 85.904 12.44C86.416 12.44 86.9067 12.4293 87.376 12.408C87.8453 12.3867 88.272 12.3653 88.656 12.344L101.04 27.608V17.592C101.04 16.4187 100.976 15.5227 100.848 14.904C100.72 14.264 100.432 13.8053 99.984 13.528C99.5573 13.2507 98.8747 13.0693 97.936 12.984V12.344C98.3413 12.3653 98.8747 12.3867 99.536 12.408C100.197 12.4293 100.816 12.44 101.392 12.44C101.904 12.44 102.405 12.4293 102.896 12.408C103.408 12.3867 103.835 12.3653 104.176 12.344Z" fill="white"/>
</svg>
